<svg width="33" height="33" viewBox="0 0 33 33" fill="none" xmlns="http://www.w3.org/2000/svg">
<g clip-path="url(#clip0_1_70)">
<path d="M13.6796 10.0551C13.5373 10.0551 13.4193 9.93979 13.4193 9.79728C13.4193 9.65478 13.532 9.53947 13.6745 9.53947H13.6796C13.8221 9.53947 13.9374 9.65478 13.9374 9.79728C13.9374 9.93979 13.8221 10.0551 13.6796 10.0551ZM13.6796 9.02391C13.5373 9.02391 13.4193 8.90861 13.4193 8.7661C13.4193 8.62359 13.532 8.50829 13.6745 8.50829H13.6796C13.8221 8.50829 13.9374 8.62359 13.9374 8.7661C13.9374 8.90861 13.8221 9.02391 13.6796 9.02391ZM13.6796 7.99273C13.5373 7.99273 13.4193 7.87742 13.4193 7.73491C13.4193 7.59241 13.532 7.4771 13.6745 7.4771H13.6796C13.8221 7.4771 13.9374 7.59241 13.9374 7.73491C13.9374 7.87742 13.8221 7.99273 13.6796 7.99273ZM13.6796 6.96154C13.5373 6.96154 13.4193 6.84623 13.4193 6.70373C13.4193 6.56122 13.532 6.44592 13.6745 6.44592H13.6796C13.8221 6.44592 13.9374 6.56122 13.9374 6.70373C13.9374 6.84623 13.8221 6.96154 13.6796 6.96154ZM13.6796 5.93036C13.5373 5.93036 13.4193 5.81505 13.4193 5.67254C13.4193 5.53004 13.532 5.41473 13.6745 5.41473H13.6796C13.8221 5.41473 13.9374 5.53004 13.9374 5.67254C13.9374 5.81505 13.8221 5.93036 13.6796 5.93036ZM13.6796 4.89917C13.5373 4.89917 13.4193 4.78386 13.4193 4.64136C13.4193 4.49885 13.532 4.38354 13.6745 4.38354H13.6796C13.8221 4.38354 13.9374 4.49885 13.9374 4.64136C13.9374 4.78386 13.8221 4.89917 13.6796 4.89917Z" fill="#BDB9C8"/>
<path d="M22.4294 20.3669C22.2869 20.3669 22.1716 20.2516 22.1716 20.1091V2.81082C21.6671 2.70808 21.2693 2.30989 21.1661 1.80554H11.8338C11.7311 2.30982 11.3328 2.70808 10.8286 2.81082V20.1091C10.8286 20.2516 10.7132 20.3669 10.5707 20.3669C10.4282 20.3669 10.3129 20.2516 10.3129 20.1091V2.57898C10.3129 2.43654 10.4282 2.32117 10.5707 2.32117C10.9972 2.32117 11.3441 1.97422 11.3441 1.54773C11.3441 1.40529 11.4594 1.28992 11.6019 1.28992H21.3982C21.5407 1.28992 21.656 1.40522 21.656 1.54773C21.656 1.97422 22.0029 2.32117 22.4294 2.32117C22.4633 2.32115 22.4968 2.32781 22.5281 2.34076C22.5594 2.35371 22.5878 2.3727 22.6117 2.39664C22.6357 2.42059 22.6546 2.44902 22.6676 2.4803C22.6805 2.51159 22.6872 2.54512 22.6872 2.57898V20.1091C22.6872 20.2516 22.5718 20.3669 22.4294 20.3669Z" fill="#BDB9C8"/>
<path d="M23.4605 19.8514C23.318 19.8514 23.2027 19.7361 23.2027 19.5936V0.774414H9.7973V19.5936C9.7973 19.7361 9.682 19.8514 9.53949 19.8514C9.39698 19.8514 9.28168 19.7361 9.28168 19.5936V0.516602C9.28168 0.37416 9.39698 0.258789 9.53949 0.258789H23.4605C23.603 0.258789 23.7183 0.374096 23.7183 0.516602V19.5936C23.7183 19.7361 23.603 19.8514 23.4605 19.8514Z" fill="#BDB9C8"/>
<path d="M16.2921 19.3357V18.8202C17.7885 18.8202 19.078 17.437 19.078 16.7578C19.078 16.0788 17.7885 14.6954 16.2921 14.6954V14.1798C17.9611 14.1798 19.5936 15.6559 19.5936 16.7578C19.5936 17.8595 17.9612 19.3357 16.2921 19.3357Z" fill="#BDB9C8"/>
<path d="M18.9713 15.4688C18.8287 15.4688 18.7134 15.3535 18.7134 15.211C18.7135 15.1516 18.734 15.0939 18.7716 15.0479C18.8093 15.0018 18.8616 14.9702 18.9199 14.9583C19.011 14.8792 19.2608 14.4923 19.6435 13.4953C19.6944 13.3626 19.8443 13.297 19.9763 13.347C20.0401 13.3716 20.0916 13.4204 20.1194 13.4829C20.1473 13.5453 20.1492 13.6163 20.1248 13.6801C19.4385 15.4688 19.146 15.4688 18.9713 15.4688Z" fill="#BDB9C8"/>
<path d="M18.9713 15.4688H18.3394C18.1968 15.4688 18.0815 15.3535 18.0815 15.211C18.0815 15.0686 18.1968 14.9532 18.3394 14.9532H18.9713C19.1138 14.9532 19.2291 15.0685 19.2291 15.211C19.2291 15.3535 19.1138 15.4688 18.9713 15.4688ZM19.8836 20.1841C19.8315 20.1841 19.7806 20.1684 19.7377 20.1389C19.6947 20.1094 19.6617 20.0676 19.643 20.019C19.2603 19.0226 19.0106 18.6364 18.9199 18.5573C18.8616 18.5454 18.8093 18.5138 18.7716 18.4677C18.734 18.4217 18.7135 18.364 18.7134 18.3046C18.7134 18.162 18.8287 18.0467 18.9713 18.0467C19.1455 18.0467 19.4375 18.0467 20.1243 19.8338C20.1752 19.9667 20.1092 20.1162 19.9763 20.1671C19.9467 20.1783 19.9153 20.1841 19.8836 20.1841Z" fill="#BDB9C8"/>
<path d="M18.9712 18.5624H18.3398C18.1973 18.5624 18.082 18.4471 18.082 18.3046C18.082 18.1621 18.1973 18.0468 18.3398 18.0468H18.9712C19.1137 18.0468 19.229 18.1621 19.229 18.3046C19.229 18.4471 19.1137 18.5624 18.9712 18.5624Z" fill="#BDB9C8"/>
<path d="M16.5 21.3981C13.657 21.3981 11.3441 19.3166 11.3441 16.7578C11.3441 14.1992 13.657 12.1174 16.5 12.1174C19.3429 12.1174 21.656 14.1992 21.656 16.7578C21.656 18.1449 20.9748 19.4485 19.7864 20.3342C18.8661 21.02 17.6989 21.3981 16.5 21.3981ZM16.5 12.6331C13.9415 12.6331 11.8597 14.4834 11.8597 16.7578C11.8597 19.0322 13.9415 20.8825 16.5 20.8825C17.5887 20.8825 18.646 20.5411 19.4784 19.9208C20.5347 19.1333 21.1404 17.9807 21.1404 16.7578C21.1404 14.4834 19.0589 12.6331 16.5 12.6331Z" fill="#BDB9C8"/>
<path d="M15.7636 19.3589H15.7631C14.7541 19.3589 13.985 19.0412 13.4769 18.4153C12.4827 17.1893 12.879 15.2401 12.8963 15.1578C12.9078 15.1039 12.9362 15.055 12.9774 15.0183C13.0186 14.9817 13.0705 14.9592 13.1255 14.9542C13.2436 14.9448 13.3442 15.0091 13.3873 15.1132C13.4051 15.1571 13.4215 15.1921 13.4361 15.22C13.5132 14.9523 13.8798 14.113 15.4404 14.113C15.699 14.113 15.9819 14.1366 16.2818 14.1832C16.3354 14.1916 16.3849 14.2167 16.4234 14.2549C16.462 14.2931 16.4874 14.3424 16.4963 14.3959C16.5052 14.4494 16.497 14.5043 16.4728 14.5529C16.4487 14.6014 16.4099 14.6411 16.3619 14.6664L15.0903 15.3317C15.2081 15.6112 15.3697 16.1137 15.3697 16.7657C15.3697 17.4137 15.2099 17.9082 15.092 18.1846L16.3619 18.8493C16.4111 18.8751 16.4507 18.9162 16.4747 18.9664C16.4987 19.0165 16.5059 19.0731 16.4952 19.1277C16.4844 19.1822 16.4563 19.2318 16.4151 19.269C16.3739 19.3063 16.3217 19.3293 16.2664 19.3346C16.0897 19.3513 15.9225 19.3589 15.7636 19.3589ZM13.3344 15.8034C13.2924 16.4143 13.3272 17.4134 13.8787 18.0915C14.1768 18.4586 14.5987 18.6928 15.1375 18.7905L14.6302 18.5251C14.5989 18.5087 14.5713 18.486 14.5491 18.4585C14.5269 18.4309 14.5106 18.3991 14.5013 18.365C14.4918 18.3309 14.4895 18.2953 14.4945 18.2603C14.4995 18.2253 14.5116 18.1917 14.5302 18.1616C14.533 18.1571 14.854 17.6158 14.854 16.7659C14.854 15.914 14.5315 15.3563 14.5282 15.3508C14.5104 15.3207 14.4989 15.2872 14.4944 15.2526C14.4899 15.2179 14.4925 15.1826 14.502 15.1489C14.5116 15.1153 14.5278 15.0839 14.5499 15.0567C14.5719 15.0295 14.5992 15.0071 14.6301 14.9908L15.3182 14.6308C14.0761 14.6728 13.932 15.3528 13.9262 15.3828C13.9227 15.4011 13.9176 15.4192 13.9109 15.4367C13.8847 15.5003 13.7395 15.8189 13.4436 15.8189C13.4067 15.8188 13.3699 15.8136 13.3344 15.8034Z" fill="#BDB9C8"/>
<path d="M19.3358 10.5707C19.1933 10.5707 19.078 10.4554 19.078 10.3129V4.12579C19.078 3.98329 19.1933 3.86798 19.3358 3.86798C19.4783 3.86798 19.5936 3.98329 19.5936 4.12579V10.3129C19.5936 10.4554 19.4783 10.5707 19.3358 10.5707Z" fill="#BDB9C8"/>
<path d="M17.789 10.0551H15.2111C15.0686 10.0551 14.9532 9.93979 14.9532 9.79728C14.9532 9.65478 15.0686 9.53947 15.2111 9.53947H17.789C17.9315 9.53947 18.0468 9.65478 18.0468 9.79728C18.0468 9.93979 17.9315 10.0551 17.789 10.0551ZM17.0156 8.50835H15.9844C15.4157 8.50835 14.9532 8.04583 14.9532 7.47716C14.9532 6.90843 15.4157 6.44598 15.9844 6.44598H17.0156C17.5841 6.44598 18.0468 6.90843 18.0468 7.47716C18.0468 8.04583 17.5841 8.50835 17.0156 8.50835ZM15.9844 6.96154C15.7002 6.96154 15.4688 7.19292 15.4688 7.47716C15.4688 7.7614 15.7002 7.99272 15.9844 7.99272H17.0156C17.3001 7.99272 17.5312 7.7614 17.5312 7.47716C17.5312 7.19292 17.3001 6.96154 17.0156 6.96154H15.9844ZM17.0156 5.93035H15.9844C15.4157 5.93035 14.9532 5.4679 14.9532 4.89917C14.9532 4.3305 15.4157 3.86798 15.9844 3.86798H17.0156C17.5841 3.86798 18.0468 4.3305 18.0468 4.89917C18.0468 5.4679 17.5841 5.93035 17.0156 5.93035ZM15.9844 4.38361C15.7002 4.38361 15.4688 4.61493 15.4688 4.89917C15.4688 5.1834 15.7002 5.41479 15.9844 5.41479H17.0156C17.3001 5.41479 17.5312 5.1834 17.5312 4.89917C17.5312 4.61493 17.3001 4.38361 17.0156 4.38361H15.9844Z" fill="#BDB9C8"/>
<path d="M15.7266 10.5707C15.6928 10.5707 15.6592 10.5641 15.628 10.5511C15.5967 10.5381 15.5683 10.5191 15.5444 10.4951L15.0288 9.97951C14.9805 9.93118 14.9533 9.86562 14.9533 9.79727C14.9533 9.72892 14.9805 9.66336 15.0288 9.61503C15.0771 9.5667 15.1427 9.53954 15.211 9.53954C15.2794 9.53954 15.3449 9.5667 15.3933 9.61503L15.9089 10.1306C15.9449 10.1666 15.9695 10.2126 15.9794 10.2626C15.9894 10.3126 15.9843 10.3644 15.9648 10.4115C15.9453 10.4586 15.9122 10.4989 15.8698 10.5272C15.8274 10.5555 15.7776 10.5707 15.7266 10.5707ZM17.789 10.5707C17.7551 10.5707 17.7216 10.564 17.6903 10.5511C17.659 10.5381 17.6306 10.5191 17.6067 10.4952C17.5827 10.4713 17.5638 10.4428 17.5508 10.4115C17.5379 10.3803 17.5312 10.3467 17.5313 10.3129V9.28168C17.5313 9.13917 17.6466 9.02386 17.789 9.02386C17.9315 9.02386 18.0468 9.13917 18.0468 9.28168V10.3129C18.0468 10.4554 17.9315 10.5707 17.789 10.5707Z" fill="#BDB9C8"/>
<path d="M7.63802 18.3031C7.58135 18.303 7.52628 18.2843 7.48132 18.2498C7.43636 18.2153 7.40402 18.1669 7.3893 18.1122L4.12501 5.92852C4.10731 5.86249 4.11654 5.79214 4.15066 5.73291C4.16759 5.70352 4.19016 5.67779 4.21709 5.65718C4.24401 5.63657 4.27476 5.62149 4.30754 5.61283C4.40576 5.58694 4.49786 5.5418 4.57851 5.48004C4.65915 5.41828 4.72674 5.34113 4.77734 5.25305C4.82835 5.16514 4.8614 5.06798 4.87458 4.9672C4.88776 4.86641 4.8808 4.76402 4.8541 4.66595C4.83641 4.59983 4.84563 4.5294 4.87975 4.47008C4.91397 4.41089 4.97028 4.3677 5.03631 4.35L8.44156 3.43767C8.57956 3.40144 8.72077 3.4822 8.75725 3.61994C8.77493 3.68597 8.76566 3.75632 8.73148 3.81552C8.6973 3.87472 8.64101 3.91793 8.57498 3.93563L5.39435 4.78783C5.41031 5.04042 5.35098 5.29207 5.22387 5.51093C5.09793 5.7303 4.90974 5.90737 4.68311 6.01972L7.8872 17.9783C7.90487 18.0444 7.89561 18.1148 7.86144 18.1741C7.82727 18.2334 7.77098 18.2767 7.70493 18.2945C7.68306 18.3001 7.66059 18.3029 7.63802 18.3031Z" fill="#BDB9C8"/>
<path d="M6.4326 17.787C6.37593 17.7869 6.32086 17.7682 6.2759 17.7337C6.23094 17.6992 6.1986 17.6508 6.18388 17.5961L2.59538 4.20353C2.57779 4.1376 2.58681 4.06709 2.62104 4.00792C2.65526 3.94875 2.71166 3.90544 2.77766 3.88784L8.44161 2.37029C8.5796 2.33381 8.72082 2.41509 8.7573 2.55257C8.77498 2.6186 8.76571 2.68895 8.73152 2.74815C8.69734 2.80735 8.64105 2.85055 8.57502 2.86826L3.15999 4.3191L6.68184 17.4622C6.69952 17.5283 6.69025 17.5987 6.65608 17.658C6.62191 17.7173 6.56562 17.7606 6.49957 17.7784C6.47767 17.7839 6.45519 17.7868 6.4326 17.787Z" fill="#BDB9C8"/>
<path d="M1.60188 14.4437C1.55638 14.4438 1.51167 14.4318 1.4723 14.409C1.43294 14.3861 1.40032 14.3533 1.37778 14.3138C1.36096 14.2844 1.3501 14.252 1.34582 14.2184C1.34154 14.1848 1.34392 14.1507 1.35282 14.118C1.36173 14.0853 1.37699 14.0548 1.39773 14.028C1.41847 14.0012 1.44428 13.9788 1.47369 13.962L3.73999 12.667C3.76935 12.6501 3.80176 12.6392 3.83536 12.6349C3.86896 12.6305 3.90309 12.6329 3.93578 12.6418C3.96846 12.6507 3.99906 12.666 4.02581 12.6868C4.05256 12.7076 4.07494 12.7335 4.09164 12.7629C4.10846 12.7923 4.11932 12.8247 4.1236 12.8583C4.12788 12.8919 4.1255 12.926 4.1166 12.9587C4.1077 12.9913 4.09245 13.0219 4.07172 13.0487C4.051 13.0755 4.0252 13.0979 3.9958 13.1147L1.7295 14.4097C1.69068 14.432 1.64667 14.4438 1.60188 14.4437Z" fill="#BDB9C8"/>
<path d="M3.07918 15.211C3.03369 15.2111 2.989 15.1991 2.94964 15.1763C2.91029 15.1535 2.87768 15.1206 2.85514 15.0811C2.83832 15.0518 2.82746 15.0193 2.82317 14.9858C2.81889 14.9522 2.82127 14.9181 2.83018 14.8854C2.83909 14.8527 2.85435 14.8221 2.87509 14.7954C2.89582 14.7686 2.92164 14.7462 2.95104 14.7294L4.25557 13.9842C4.37868 13.9127 4.53653 13.9562 4.6073 14.0801C4.62411 14.1095 4.63497 14.1419 4.63926 14.1755C4.64354 14.2091 4.64116 14.2432 4.63225 14.2759C4.62334 14.3085 4.60809 14.3391 4.58735 14.3659C4.56661 14.3926 4.5408 14.4151 4.51139 14.4318L3.20679 15.177C3.16797 15.1994 3.12396 15.2111 3.07918 15.211Z" fill="#BDB9C8"/>
<path d="M25.5169 18.303C25.4947 18.303 25.4725 18.3 25.4499 18.2945C25.3839 18.2766 25.3276 18.2333 25.2934 18.174C25.2592 18.1148 25.25 18.0444 25.2676 17.9783L28.4725 6.0197C28.2459 5.90735 28.0577 5.73028 27.9317 5.5109C27.8046 5.29206 27.7454 5.04038 27.7615 4.78781L24.5808 3.93561C24.5148 3.9179 24.4585 3.8747 24.4243 3.8155C24.3901 3.7563 24.3809 3.68595 24.3985 3.61991C24.4165 3.55396 24.4598 3.49778 24.5191 3.46364C24.5783 3.42949 24.6486 3.42015 24.7147 3.43764L28.1194 4.34998C28.1521 4.35869 28.1827 4.37378 28.2095 4.39439C28.2363 4.415 28.2587 4.44072 28.2755 4.47005C28.3098 4.52941 28.3194 4.59967 28.3012 4.66592C28.2746 4.76402 28.2677 4.86641 28.281 4.96718C28.2942 5.06795 28.3272 5.1651 28.3782 5.25303C28.4288 5.34107 28.4964 5.41821 28.577 5.47996C28.6577 5.54172 28.7497 5.58687 28.8479 5.61281C28.8807 5.62153 28.9113 5.63663 28.9382 5.65723C28.9651 5.67784 28.9876 5.70355 29.0046 5.73288C29.0388 5.79205 29.0484 5.8625 29.0307 5.9285L25.766 18.1121C25.7512 18.1669 25.7187 18.2152 25.6737 18.2497C25.6287 18.2842 25.5736 18.3029 25.5169 18.303Z" fill="#BDB9C8"/>
<path d="M26.7232 17.789C26.7011 17.789 26.679 17.7859 26.6568 17.7804C26.5908 17.7628 26.5344 17.7196 26.5001 17.6604C26.4658 17.6012 26.4565 17.5308 26.4741 17.4647L29.9956 4.31911L24.5809 2.86821C24.5148 2.85051 24.4586 2.8073 24.4244 2.7481C24.3902 2.6889 24.3809 2.61855 24.3986 2.55252C24.4166 2.48657 24.4599 2.4304 24.5191 2.39626C24.5783 2.36212 24.6487 2.35277 24.7147 2.37024L30.3782 3.88779C30.4443 3.9055 30.5006 3.9487 30.5347 4.0079C30.5689 4.0671 30.5782 4.13745 30.5605 4.20348L26.9725 17.5976C26.9577 17.6524 26.9253 17.7009 26.8802 17.7355C26.8352 17.7701 26.78 17.7889 26.7232 17.789Z" fill="#BDB9C8"/>
<path d="M31.5539 14.4437C31.5101 14.4437 31.4663 14.4329 31.4261 14.4097L29.1603 13.1147C29.1309 13.0979 29.105 13.0755 29.0843 13.0487C29.0635 13.022 29.0483 12.9914 29.0393 12.9587C29.0304 12.9261 29.028 12.892 29.0323 12.8584C29.0365 12.8248 29.0473 12.7924 29.0641 12.763C29.0808 12.7335 29.1032 12.7076 29.13 12.6868C29.1568 12.666 29.1874 12.6507 29.2201 12.6418C29.2529 12.6329 29.287 12.6305 29.3206 12.6349C29.3543 12.6392 29.3867 12.6501 29.4161 12.6671L31.6819 13.9621C31.7312 13.9903 31.7699 14.034 31.7918 14.0864C31.8138 14.1389 31.8177 14.1971 31.8031 14.2521C31.7885 14.307 31.7562 14.3556 31.7111 14.3903C31.6661 14.4249 31.6108 14.4437 31.5539 14.4437Z" fill="#BDB9C8"/>
<path d="M30.0767 15.211C30.0318 15.2111 29.9877 15.1994 29.9489 15.177L28.6448 14.4318C28.6154 14.415 28.5895 14.3926 28.5688 14.3659C28.548 14.3391 28.5328 14.3085 28.5238 14.2759C28.5149 14.2432 28.5125 14.2091 28.5167 14.1755C28.521 14.1419 28.5318 14.1095 28.5486 14.0801C28.5653 14.0506 28.5877 14.0247 28.6145 14.0039C28.6413 13.9831 28.6719 13.9679 28.7046 13.9589C28.7373 13.95 28.7715 13.9477 28.8051 13.952C28.8387 13.9563 28.8711 13.9673 28.9005 13.9842L30.2046 14.7294C30.234 14.7462 30.2598 14.7686 30.2806 14.7953C30.3013 14.8221 30.3166 14.8527 30.3255 14.8853C30.3345 14.918 30.3369 14.9521 30.3326 14.9857C30.3284 15.0193 30.3175 15.0517 30.3008 15.0811C30.2781 15.1205 30.2455 15.1533 30.2061 15.1761C30.1668 15.1989 30.1221 15.2109 30.0767 15.211Z" fill="#BDB9C8"/>
<path d="M31.1944 32.7412C31.0519 32.7412 30.9366 32.6258 30.9366 32.4833C30.9366 32.4495 30.9432 32.416 30.9562 32.3847C30.9691 32.3534 30.9881 32.325 31.0121 32.301C31.036 32.2771 31.0644 32.2581 31.0957 32.2452C31.127 32.2322 31.1605 32.2256 31.1944 32.2256C31.9054 32.2256 32.4834 31.6475 32.4834 30.9366V16.5C32.4834 16.1387 32.352 15.7055 32.1234 15.3112C32.1064 15.2819 32.0953 15.2496 32.0908 15.216C32.0863 15.1824 32.0885 15.1483 32.0972 15.1156C32.1059 15.0829 32.121 15.0522 32.1415 15.0253C32.1621 14.9983 32.1877 14.9758 32.217 14.9588C32.2463 14.9418 32.2787 14.9307 32.3123 14.9262C32.3458 14.9217 32.3799 14.9239 32.4127 14.9326C32.4454 14.9413 32.4761 14.9564 32.503 14.9769C32.5299 14.9975 32.5525 15.0231 32.5695 15.0524C32.8465 15.5298 32.999 16.0439 32.999 16.5V30.9366C32.999 31.9316 32.1894 32.7412 31.1944 32.7412Z" fill="#BDB9C8"/>
<path d="M1.80566 32.7412C0.810698 32.7412 0.0010376 31.9315 0.0010376 30.9366V16.5C0.0010376 16.0499 0.150053 15.5419 0.421014 15.0698C0.437801 15.0404 0.460228 15.0146 0.487007 14.9939C0.513787 14.9732 0.544392 14.958 0.577069 14.9491C0.609746 14.9402 0.64385 14.9379 0.677427 14.9423C0.711004 14.9466 0.743392 14.9575 0.772735 14.9744C0.802118 14.9912 0.827899 15.0137 0.8486 15.0404C0.869302 15.0672 0.884519 15.0978 0.893379 15.1305C0.90224 15.1632 0.90457 15.1973 0.900236 15.2308C0.895903 15.2644 0.884991 15.2968 0.868125 15.3261C0.641508 15.7216 0.516663 16.1385 0.516663 16.5V30.9366C0.516663 31.6475 1.09494 32.2256 1.80566 32.2256C1.83951 32.2256 1.87304 32.2323 1.90432 32.2452C1.9356 32.2582 1.96402 32.2771 1.98795 32.3011C2.01189 32.325 2.03088 32.3534 2.04382 32.3847C2.05677 32.416 2.06343 32.4495 2.06341 32.4834C2.06341 32.6259 1.9481 32.7412 1.80566 32.7412Z" fill="#BDB9C8"/>
<path d="M16.4998 25.5229C16.4509 25.5229 16.403 25.5089 16.3618 25.4826L0.506097 15.4155C0.477513 15.3974 0.452785 15.3738 0.433328 15.3461C0.41387 15.3184 0.400065 15.2871 0.392702 15.2541C0.385338 15.221 0.384562 15.1869 0.390416 15.1535C0.39627 15.1202 0.408641 15.0883 0.426819 15.0598C0.50339 14.9394 0.662718 14.9031 0.782601 14.9805L16.6383 25.0477C16.6669 25.0658 16.6916 25.0894 16.7111 25.117C16.7305 25.1447 16.7443 25.176 16.7517 25.209C16.7591 25.242 16.7598 25.2761 16.754 25.3095C16.7481 25.3428 16.7358 25.3746 16.7176 25.4031C16.6944 25.4399 16.6622 25.4701 16.6241 25.4911C16.586 25.512 16.5432 25.523 16.4998 25.5229Z" fill="#BDB9C8"/>
<path d="M16.5002 25.5228C16.4568 25.5229 16.414 25.5119 16.3759 25.491C16.3379 25.47 16.3057 25.4398 16.2825 25.403C16.2643 25.3745 16.252 25.3426 16.2461 25.3093C16.2403 25.276 16.2411 25.2419 16.2484 25.2088C16.2558 25.1758 16.2696 25.1446 16.289 25.1169C16.3085 25.0892 16.3332 25.0657 16.3618 25.0475L32.2175 14.9804C32.3369 14.9036 32.497 14.9396 32.573 15.0596C32.5912 15.0882 32.6036 15.1201 32.6095 15.1534C32.6153 15.1868 32.6145 15.221 32.6071 15.254C32.5997 15.2871 32.5859 15.3183 32.5664 15.346C32.5469 15.3737 32.5221 15.3973 32.4935 15.4153L16.6382 25.4825C16.597 25.5088 16.5491 25.5228 16.5002 25.5228Z" fill="#BDB9C8"/>
<path d="M31.1944 31.1944C31.146 31.1945 31.0985 31.1809 31.0574 31.1552L20.362 24.4529C20.3041 24.4166 20.263 24.3587 20.2477 24.2921C20.2324 24.2254 20.2441 24.1555 20.2804 24.0975C20.3168 24.0397 20.3747 23.9987 20.4413 23.9834C20.5079 23.9681 20.5778 23.9798 20.6358 24.0159L31.3314 30.718C31.3892 30.7544 31.4303 30.8123 31.4456 30.8789C31.4609 30.9456 31.4492 31.0156 31.413 31.0736C31.3898 31.1106 31.3575 31.1411 31.3193 31.1623C31.2811 31.1834 31.2381 31.1945 31.1944 31.1944Z" fill="#BDB9C8"/>
<path d="M1.80593 31.1944C1.7622 31.1945 1.71918 31.1834 1.6809 31.1623C1.64263 31.1411 1.61035 31.1106 1.58711 31.0736C1.55082 31.0156 1.53903 30.9456 1.55433 30.8789C1.56963 30.8123 1.61077 30.7544 1.6687 30.718L12.3642 24.0154C12.4222 23.9791 12.4922 23.9673 12.5588 23.9826C12.6255 23.9979 12.6833 24.039 12.7197 24.097C12.756 24.1549 12.7678 24.2249 12.7525 24.2916C12.7372 24.3582 12.696 24.4161 12.6381 24.4524L1.94257 31.1552C1.90164 31.1809 1.85426 31.1945 1.80593 31.1944Z" fill="#BDB9C8"/>
<path d="M31.1944 32.7412H1.80566C1.66316 32.7412 1.54785 32.6259 1.54785 32.4834C1.54783 32.4495 1.55449 32.416 1.56744 32.3847C1.58039 32.3534 1.59938 32.325 1.62333 32.3011C1.64727 32.2771 1.6757 32.2581 1.70699 32.2452C1.73827 32.2322 1.77181 32.2256 1.80566 32.2256H31.1945C31.2287 32.2251 31.2626 32.2314 31.2944 32.2441C31.3261 32.2568 31.355 32.2757 31.3794 32.2997C31.4038 32.3237 31.4231 32.3523 31.4363 32.3838C31.4495 32.4154 31.4563 32.4492 31.4563 32.4834C31.4563 32.5176 31.4495 32.5515 31.4363 32.583C31.4231 32.6146 31.4037 32.6432 31.3794 32.6672C31.355 32.6911 31.3261 32.71 31.2943 32.7228C31.2626 32.7355 31.2286 32.7417 31.1944 32.7412Z" fill="#BDB9C8"/>
</g>
<defs>
<clipPath id="clip0_1_70">
<rect width="33" height="33" fill="white"/>
</clipPath>
</defs>
</svg>
